<svg width="44" height="30" viewBox="0 0 44 30" fill="none" xmlns="http://www.w3.org/2000/svg">
<path d="M18.25 9.50001C18.25 11.1454 16.7949 12.4792 15 12.4792C13.2051 12.4792 11.75 11.1454 11.75 9.50001C11.75 7.85466 13.2051 6.52084 15 6.52084C16.7949 6.52084 18.25 7.85466 18.25 9.50001Z" stroke="white" stroke-width="1.5"/>
<path d="M21.25 19.5833C21.25 20.5693 20.6409 21.5268 19.5138 22.2648C18.3882 23.0019 16.7947 23.4792 15 23.4792C13.2053 23.4792 11.6118 23.0019 10.4862 22.2648C9.35911 21.5268 8.75 20.5693 8.75 19.5833C8.75 18.5974 9.35911 17.6398 10.4862 16.9019C11.6118 16.1648 13.2053 15.6875 15 15.6875C16.7947 15.6875 18.3882 16.1648 19.5138 16.9019C20.6409 17.6398 21.25 18.5974 21.25 19.5833Z" stroke="white" stroke-width="1.5"/>
<path d="M1 15C1 7.26801 7.26801 1 15 1C22.732 1 29 7.26801 29 15C29 22.732 22.732 29 15 29C7.26801 29 1 22.732 1 15Z" stroke="white" stroke-width="1.5"/>
<path d="M41.8333 13.875L37.7708 17.9375L33.7083 13.875" stroke="white" stroke-width="1.5" stroke-linecap="round" stroke-linejoin="round"/>
</svg>
